<?xml version="1.0" encoding="utf-8"?>
<svg xmlns="http://www.w3.org/2000/svg"
	xmlns:xlink="http://www.w3.org/1999/xlink"
	width="81px" height="81px" viewBox="0 0 81 81">
<path fillRule="evenodd" d="M 40.5-0C 18.17-0 0 18.17 0 40.5 0 62.83 18.17 81 40.5 81 62.83 81 81 62.83 81 40.5 81 18.17 62.83-0 40.5-0ZM 42.12 77.72C 42.12 77.72 42.12 76.14 42.12 76.14 42.12 75.24 41.4 74.52 40.5 74.52 39.61 74.52 38.88 75.24 38.88 76.14 38.88 76.14 38.88 77.72 38.88 77.72 19.62 76.89 4.11 61.38 3.28 42.12 3.28 42.12 4.86 42.12 4.86 42.12 5.75 42.12 6.48 41.39 6.48 40.5 6.48 39.6 5.75 38.88 4.86 38.88 4.86 38.88 3.28 38.88 3.28 38.88 4.11 19.62 19.62 4.11 38.88 3.28 38.88 3.28 38.88 4.86 38.88 4.86 38.88 5.75 39.61 6.48 40.5 6.48 41.4 6.48 42.12 5.75 42.12 4.86 42.12 4.86 42.12 3.28 42.12 3.28 61.38 4.11 76.89 19.62 77.72 38.88 77.72 38.88 76.14 38.88 76.14 38.88 75.24 38.88 74.52 39.6 74.52 40.5 74.52 41.39 75.24 42.12 76.14 42.12 76.14 42.12 77.72 42.12 77.72 42.12 76.89 61.38 61.38 76.89 42.12 77.72ZM 60.08 18.81C 60.08 18.81 35.55 35.12 35.55 35.12 35.38 35.23 35.24 35.38 35.12 35.55 35.12 35.55 18.81 60.08 18.81 60.08 18.4 60.68 18.48 61.49 19 62 19.29 62.3 19.68 62.45 20.08 62.45 20.37 62.45 20.66 62.36 20.92 62.19 20.92 62.19 45.45 45.88 45.45 45.88 45.62 45.76 45.77 45.62 45.88 45.45 45.88 45.45 62.19 20.92 62.19 20.92 62.59 20.32 62.51 19.51 62 19 61.49 18.49 60.68 18.41 60.08 18.81ZM 37.49 37.49C 37.49 37.49 37.49 37.49 37.49 37.49 37.49 37.49 43.51 43.51 43.51 43.51 43.51 43.51 25.55 55.45 25.55 55.45 25.55 55.45 37.49 37.49 37.49 37.49Z" fill="rgb(0,0,0)"/></svg>