<?xml version="1.0" encoding="utf-8"?>
<svg xmlns="http://www.w3.org/2000/svg"
	xmlns:xlink="http://www.w3.org/1999/xlink"
	width="67px" height="66px" viewBox="0 0 67 66">
<path fillRule="evenodd" d="M 66.08 53.3C 66.08 53.3 53.37 65.99 53.37 65.99 53.37 65.99 32.49 45.13 32.49 45.13 32.49 45.13 34.4 43.23 34.4 43.23 34.4 43.23 53.37 62.18 53.37 62.18 53.37 62.18 62.26 53.3 62.26 53.3 62.26 53.3 61.39 52.43 61.39 52.43 61.39 52.43 59.64 54.17 59.64 54.17 59.64 54.17 57.74 52.26 57.74 52.26 57.74 52.26 59.48 50.52 59.48 50.52 59.48 50.52 57.34 48.38 57.34 48.38 57.34 48.38 54.24 51.47 54.24 51.47 54.24 51.47 52.34 49.57 52.34 49.57 52.34 49.57 55.43 46.48 55.43 46.48 55.43 46.48 53.29 44.34 53.29 44.34 53.29 44.34 51.54 46.08 51.54 46.08 51.54 46.08 49.64 44.18 49.64 44.18 49.64 44.18 51.38 42.43 51.38 42.43 51.38 42.43 49.24 40.29 49.24 40.29 49.24 40.29 46.14 43.39 46.14 43.39 46.14 43.39 44.24 41.48 44.24 41.48 44.24 41.48 47.33 38.39 47.33 38.39 47.33 38.39 45.19 36.25 45.19 36.25 45.19 36.25 43.44 37.99 43.44 37.99 43.44 37.99 41.54 36.09 41.54 36.09 41.54 36.09 44.24 33.39 44.24 33.39 44.24 33.39 44.24 33.4 44.24 33.4 44.24 33.4 45.2 32.44 45.2 32.44 45.2 32.44 66.08 53.3 66.08 53.3ZM 61.06 14.31C 61.06 14.31 14.41 60.9 14.41 60.9 14.24 61.07 14.03 61.19 13.8 61.25 13.8 61.25 3.69 63.95 3.69 63.95 3.58 63.99 3.46 64 3.34 64 2.99 64 2.64 63.86 2.39 63.61 2.05 63.27 1.91 62.77 2.04 62.3 2.04 62.3 4.75 52.21 4.75 52.21 4.81 51.98 4.93 51.77 5.1 51.6 5.1 51.6 22.03 34.69 22.03 34.69 22.03 34.69 0 12.69 0 12.69 0 12.69 12.71-0 12.71-0 12.71-0 34.74 22 34.74 22 34.74 22 51.75 5.02 51.75 5.02 51.75 5.02 51.76 5.02 51.76 5.02 51.75 5.03 52.87 3.91 52.87 3.91 55.44 1.35 59.6 1.35 62.17 3.91 64.73 6.47 64.73 10.63 62.16 13.19 62.16 13.19 61.04 14.31 61.05 14.3 61.05 14.3 53.66 6.92 53.66 6.92 53.66 6.92 7.26 53.25 7.26 53.25 7.26 53.25 7.26 53.27 7.26 53.27 7.26 53.27 12.74 58.74 12.74 58.74 12.74 58.74 12.75 58.74 12.75 58.74 12.75 58.74 59.15 12.41 59.15 12.41 59.15 12.41 61.06 14.31 61.06 14.31ZM 23.94 32.79C 23.94 32.79 31.09 25.65 31.09 25.65 31.09 25.65 29.39 23.95 29.39 23.95 29.39 23.95 31.13 22.21 31.13 22.21 31.13 22.21 28.99 20.07 28.99 20.07 28.99 20.07 25.9 23.16 25.9 23.16 25.9 23.16 23.99 21.26 23.99 21.26 23.99 21.26 27.08 18.17 27.08 18.17 27.08 18.17 24.94 16.03 24.94 16.03 24.94 16.03 23.2 17.77 23.2 17.77 23.2 17.77 21.29 15.87 21.29 15.87 21.29 15.87 23.03 14.12 23.03 14.12 23.03 14.12 20.89 11.98 20.89 11.98 20.89 11.98 17.8 15.08 17.8 15.08 17.8 15.08 15.89 13.17 15.89 13.17 15.89 13.17 18.98 10.08 18.98 10.08 18.98 10.08 16.84 7.94 16.84 7.94 16.84 7.94 15.1 9.68 15.1 9.68 15.1 9.68 13.19 7.78 13.19 7.78 13.19 7.78 14.93 6.03 14.93 6.03 14.93 6.03 12.71 3.81 12.71 3.81 12.71 3.81 3.82 12.69 3.82 12.69 3.82 12.69 23.94 32.79 23.94 32.79Z" fill="rgb(0,0,0)"/></svg>