<?xml version="1.0" encoding="utf-8"?>
<svg xmlns="http://www.w3.org/2000/svg"
	xmlns:xlink="http://www.w3.org/1999/xlink"
	width="78px" height="77px" viewBox="0 0 78 77">
<path fillRule="evenodd" d="M 38.9 27.7C 32.95 27.7 28.11 32.53 28.11 38.48 28.11 44.42 32.95 49.26 38.9 49.26 44.85 49.26 49.7 44.42 49.7 38.48 49.7 32.53 44.85 27.7 38.9 27.7ZM 38.9 46.18C 34.65 46.18 31.19 42.72 31.19 38.48 31.19 34.23 34.65 30.78 38.9 30.78 43.15 30.78 46.61 34.23 46.61 38.48 46.61 42.72 43.15 46.18 38.9 46.18ZM 76.16 32.27C 76.16 32.27 67.93 30.93 67.93 30.93 67.23 28.25 66.16 25.69 64.74 23.29 64.74 23.29 69.55 16.45 69.55 16.45 69.98 15.84 69.91 15.01 69.38 14.48 69.38 14.48 62.84 7.94 62.84 7.94 62.31 7.41 61.46 7.34 60.85 7.78 60.85 7.78 54.07 12.65 54.07 12.65 51.66 11.23 49.09 10.17 46.42 9.48 46.42 9.48 44.97 1.25 44.97 1.25 44.84 0.52 44.2-0.02 43.45-0.02 43.45-0.02 34.2-0.02 34.2-0.02 33.45-0.02 32.8 0.53 32.68 1.27 32.68 1.27 31.34 9.49 31.34 9.49 28.69 10.18 26.15 11.24 23.76 12.64 23.76 12.64 16.95 7.77 16.95 7.77 16.33 7.34 15.49 7.41 14.96 7.94 14.96 7.94 8.41 14.47 8.41 14.47 7.89 15 7.81 15.83 8.24 16.44 8.24 16.44 13.05 23.3 13.05 23.3 11.64 25.69 10.58 28.24 9.88 30.9 9.88 30.9 1.64 32.27 1.64 32.27 0.9 32.39 0.35 33.04 0.35 33.79 0.35 33.79 0.35 43.03 0.35 43.03 0.35 43.78 0.89 44.42 1.63 44.54 1.63 44.54 9.87 46 9.87 46 10.56 48.66 11.61 51.21 13.02 53.6 13.02 53.6 8.15 60.4 8.15 60.4 7.71 61.01 7.78 61.85 8.32 62.38 8.32 62.38 14.86 68.91 14.86 68.91 15.38 69.44 16.22 69.51 16.83 69.09 16.83 69.09 23.7 64.29 23.7 64.29 26.08 65.7 28.64 66.76 31.31 67.45 31.31 67.45 32.68 75.69 32.68 75.69 32.8 76.43 33.45 76.98 34.2 76.98 34.2 76.98 43.45 76.98 43.45 76.98 44.2 76.98 44.84 76.44 44.97 75.71 44.97 75.71 46.43 67.47 46.43 67.47 49.13 66.78 51.7 65.71 54.11 64.28 54.11 64.28 60.97 69.09 60.97 69.09 61.58 69.52 62.42 69.44 62.95 68.91 62.95 68.91 69.49 62.38 69.49 62.38 70.02 61.85 70.09 61.01 69.65 60.4 69.65 60.4 64.77 53.62 64.77 53.62 66.18 51.22 67.25 48.66 67.94 45.99 67.94 45.99 76.18 44.55 76.18 44.55 76.91 44.42 77.45 43.78 77.45 43.03 77.45 43.03 77.45 33.79 77.45 33.79 77.45 33.03 76.9 32.39 76.16 32.27ZM 74.37 41.74C 74.37 41.74 66.41 43.13 66.41 43.13 65.79 43.24 65.3 43.7 65.17 44.31 64.5 47.34 63.3 50.22 61.62 52.87 61.28 53.4 61.3 54.08 61.67 54.59 61.67 54.59 66.38 61.13 66.38 61.13 66.38 61.13 61.68 65.82 61.68 65.82 61.68 65.82 55.05 61.18 55.05 61.18 54.54 60.82 53.87 60.81 53.34 61.15 50.69 62.84 47.8 64.03 44.76 64.71 44.15 64.84 43.68 65.33 43.57 65.94 43.57 65.94 42.16 73.9 42.16 73.9 42.16 73.9 35.51 73.9 35.51 73.9 35.51 73.9 34.18 65.94 34.18 65.94 34.08 65.32 33.61 64.83 33 64.69 29.97 64.02 27.1 62.83 24.47 61.15 23.95 60.82 23.27 60.83 22.76 61.19 22.76 61.19 16.12 65.82 16.12 65.82 16.12 65.82 11.42 61.13 11.42 61.13 11.42 61.13 16.12 54.56 16.12 54.56 16.49 54.06 16.51 53.37 16.17 52.84 14.49 50.2 13.31 47.34 12.64 44.33 12.5 43.72 12.01 43.26 11.4 43.15 11.4 43.15 3.44 41.74 3.44 41.74 3.44 41.74 3.44 35.09 3.44 35.09 3.44 35.09 11.39 33.77 11.39 33.77 12.01 33.67 12.51 33.2 12.64 32.59 13.32 29.57 14.51 26.71 16.19 24.07 16.53 23.55 16.51 22.87 16.16 22.36 16.16 22.36 11.51 15.74 11.51 15.74 11.51 15.74 16.22 11.04 16.22 11.04 16.22 11.04 22.79 15.73 22.79 15.73 23.31 16.1 23.99 16.12 24.52 15.78 27.16 14.11 30.02 12.92 33.03 12.26 33.64 12.12 34.11 11.62 34.21 11 34.21 11 35.51 3.06 35.51 3.06 35.51 3.06 42.16 3.06 42.16 3.06 42.16 3.06 43.55 11.01 43.55 11.01 43.66 11.62 44.13 12.11 44.74 12.24 47.77 12.92 50.65 14.11 53.31 15.8 53.84 16.13 54.52 16.12 55.04 15.75 55.04 15.75 61.58 11.05 61.58 11.05 61.58 11.05 66.28 15.74 66.28 15.74 66.28 15.74 61.64 22.35 61.64 22.35 61.28 22.86 61.26 23.54 61.6 24.07 63.29 26.71 64.49 29.58 65.16 32.62 65.3 33.23 65.8 33.7 66.42 33.8 66.42 33.8 74.37 35.1 74.37 35.1 74.37 35.1 74.37 41.74 74.37 41.74ZM 38.9 16.92C 27 16.92 17.31 26.59 17.31 38.48 17.31 50.36 27 60.04 38.9 60.04 50.81 60.04 60.49 50.36 60.49 38.48 60.49 26.59 50.81 16.92 38.9 16.92ZM 38.9 56.96C 28.7 56.96 20.4 48.67 20.4 38.48 20.4 28.29 28.7 20 38.9 20 49.11 20 57.41 28.29 57.41 38.48 57.41 48.67 49.11 56.96 38.9 56.96Z" fill="rgb(0,0,0)"/></svg>