<?xml version="1.0" encoding="utf-8"?>
<svg xmlns="http://www.w3.org/2000/svg"
	xmlns:xlink="http://www.w3.org/1999/xlink"
	width="65px" height="65px" viewBox="0 0 65 65">
<filter filterUnits="objectBoundingBox" x="0.00" y="0.00" width="100.00" height="100.00" id="filter0">
<feFlood flood-color="rgb(0,0,0)" result="coFloodOut1"/>
<feComposite in="coFloodOut1" in2="SourceAlpha" operator="in" result="coOverlay1"/>
<feBlend in="coOverlay1" in2="SourceGraphic" mode="normal" result="colorOverlay1"/>
</filter>
<g><path fillRule="evenodd" d="M 19 55C 19 55 19 54 19 54 19 54 19 11 19 11 19 11 19 10 19 10 19 10 21 10 21 10 21 10 45 10 45 10 45 10 46 10 46 10 46 10 46 55 46 55 46 55 19 55 19 55ZM 44 12C 44 12 21 12 21 12 21 12 21 53 21 53 21 53 44 53 44 53 44 53 44 12 44 12ZM 35.2 15.62C 35.2 15.62 29.8 15.62 29.8 15.62 29.8 15.62 29.8 13.75 29.8 13.75 29.8 13.75 35.2 13.75 35.2 13.75 35.2 13.75 35.2 15.62 35.2 15.62ZM 32.82 46.45C 34.34 46.45 35.58 47.73 35.58 49.32 35.58 50.9 34.34 52.19 32.82 52.19 31.3 52.19 30.07 50.9 30.07 49.32 30.07 47.73 31.3 46.45 32.82 46.45ZM 32.82 50.31C 33.35 50.31 33.78 49.86 33.78 49.32 33.78 48.77 33.35 48.32 32.82 48.32 32.3 48.32 31.87 48.77 31.87 49.32 31.87 49.86 32.3 50.31 32.82 50.31Z" fill="rgb(255,255,255)" filter="url(#filter0)"/><path fillRule="evenodd" d="M 63 63C 63 63 63 6 63 6 63 6 6 6 6 6 6 6 6 63 6 63 6 63 63 63 63 63M 65 65C 65 65 4 65 4 65 4 65 4 4 4 4 4 4 65 4 65 4 65 4 65 65 65 65 65 65 65 65 65 65Z" fill="rgb(0,0,0)"/><path fillRule="evenodd" d="M 59 59C 59 59 59 2 59 2 59 2 2 2 2 2 2 2 2 59 2 59 2 59 59 59 59 59M 61 61C 61 61-0 61-0 61-0 61-0-0-0-0-0-0 61-0 61-0 61-0 61 61 61 61 61 61 61 61 61 61Z" fill="rgb(0,0,0)"/></g></svg>