<?xml version="1.0" encoding="utf-8"?>
<svg xmlns="http://www.w3.org/2000/svg"
	xmlns:xlink="http://www.w3.org/1999/xlink"
	width="65px" height="65px" viewBox="0 0 65 65">
<filter filterUnits="objectBoundingBox" x="0.00" y="0.00" width="100.00" height="100.00" id="filter0">
<feFlood flood-color="rgb(0,0,0)" result="coFloodOut1"/>
<feComposite in="coFloodOut1" in2="SourceAlpha" operator="in" result="coOverlay1"/>
<feBlend in="coOverlay1" in2="SourceGraphic" mode="normal" result="colorOverlay1"/>
</filter>
<g><path fillRule="evenodd" d="M 32.5 50C 16.83 50 9 32.5 9 32.5 9 32.5 16.83 15 32.5 15 49.15 15 56 32.5 56 32.5 56 32.5 48.17 50 32.5 50ZM 32.5 16.94C 20.1 16.94 12.88 29.22 11.18 32.5 12.89 35.76 20.14 48.05 32.5 48.05 44.96 48.05 52.18 35.66 53.84 32.46 52.34 29.26 45.69 16.94 32.5 16.94ZM 32.5 38.33C 29.26 38.33 26.62 35.72 26.62 32.5 26.62 32.03 26.69 31.58 26.79 31.15 27.17 31.38 27.61 31.53 28.09 31.53 29.45 31.53 30.54 30.44 30.54 29.1 30.54 28.4 30.24 27.78 29.77 27.34 30.59 26.91 31.51 26.67 32.5 26.67 35.74 26.67 38.37 29.28 38.37 32.5 38.37 35.72 35.74 38.33 32.5 38.33ZM 32.5 28.61C 32.49 28.61 32.48 28.61 32.47 28.61 32.49 28.77 32.5 28.93 32.5 29.1 32.5 31.31 30.84 33.14 28.7 33.43 29.12 35.13 30.66 36.39 32.5 36.39 34.66 36.39 36.42 34.64 36.42 32.5 36.42 30.35 34.66 28.61 32.5 28.61Z" fill="rgb(255,255,255)" filter="url(#filter0)"/><path fillRule="evenodd" d="M 63 63C 63 63 63 6 63 6 63 6 6 6 6 6 6 6 6 63 6 63 6 63 63 63 63 63M 65 65C 65 65 4 65 4 65 4 65 4 4 4 4 4 4 65 4 65 4 65 4 65 65 65 65 65 65 65 65 65 65Z" fill="rgb(0,0,0)"/><path fillRule="evenodd" d="M 59 59C 59 59 59 2 59 2 59 2 2 2 2 2 2 2 2 59 2 59 2 59 59 59 59 59M 61 61C 61 61 0 61 0 61 0 61 0-0 0-0 0-0 61-0 61-0 61-0 61 61 61 61 61 61 61 61 61 61Z" fill="rgb(0,0,0)"/></g></svg>