<?xml version="1.0" encoding="utf-8"?>
<svg xmlns="http://www.w3.org/2000/svg"
	xmlns:xlink="http://www.w3.org/1999/xlink"
	width="73px" height="73px" viewBox="0 0 73 73">
<path fillRule="evenodd" d="M 73 33.57C 73 30 70.42 27.02 67.02 26.39 67.02 26.39 52.51 9.6 52.51 9.6 52.54 9.32 52.56 9.04 52.56 8.75 52.56 4.72 49.28 1.45 45.26 1.45 42.88 1.45 40.76 2.59 39.43 4.36 39.43 4.36 25.91 5.6 25.91 5.6 24.92 2.47 22.06 0.17 18.62 0.02 18.38-0.02 18.1-0.02 17.91 0.02 13.6 0.2 10.22 3.72 10.22 8.02 10.22 8.02 10.22 15.3 10.22 15.3 4.16 19.01-0 26.46-0 33.74-0 34.1 0.13 34.44 0.36 34.71 0.79 35.19 4.88 39.41 18.25 39.41 31.76 39.41 35.74 35.17 36.15 34.69 36.38 34.42 36.5 34.09 36.5 33.74 36.5 26.46 32.34 19.01 26.28 15.3 26.28 15.3 26.28 14.37 26.28 14.37 26.28 14.37 39.45 13.17 39.45 13.17 40.79 14.92 42.89 16.05 45.26 16.05 45.66 16.05 46.06 16.02 46.44 15.96 46.44 15.96 59.04 30.58 59.04 30.58 58.63 31.5 58.4 32.51 58.4 33.57 58.4 34.91 58.76 36.16 59.38 37.23 59.38 37.23 43.58 61.32 43.58 61.32 43.58 61.32 33.37 61.32 33.37 61.32 29.46 61.32 26.28 64.59 26.28 68.62 26.28 68.62 26.28 71.54 26.28 71.54 26.28 72.35 26.93 73 27.74 73 27.74 73 67.16 73 67.16 73 67.97 73 68.62 72.35 68.62 71.54 68.62 71.54 68.62 68.62 68.62 68.62 68.62 64.59 65.44 61.32 61.53 61.32 61.53 61.32 54.02 61.32 54.02 61.32 54.02 61.32 67.47 40.66 67.47 40.66 70.64 39.86 73 36.99 73 33.57ZM 13.14 8.02C 13.14 5.29 15.29 3.06 18.06 2.94 18.14 2.93 18.22 2.92 18.2 2.91 18.25 2.92 18.42 2.93 18.47 2.94 20.97 3.04 22.98 4.91 23.31 7.31 23.31 7.34 23.32 7.38 23.32 7.41 23.35 7.61 23.36 7.81 23.36 8.02 23.36 8.02 23.36 13.02 23.36 13.02 23.36 13.03 23.36 13.04 23.36 13.05 23.36 13.05 23.36 15.81 23.36 15.81 20.17 16.13 16.32 16.13 13.14 15.81 13.14 15.81 13.14 8.02 13.14 8.02ZM 33.57 33.1C 32.39 34.01 28.24 36.49 18.25 36.49 8.26 36.49 4.11 34 2.93 33.1 3.16 27.49 6.3 21.68 10.76 18.45 13.02 18.8 15.54 18.97 18.25 18.97 20.96 18.97 23.48 18.8 25.74 18.45 30.2 21.68 33.34 27.49 33.57 33.1ZM 26.28 11.44C 26.28 11.44 26.28 8.5 26.28 8.5 26.28 8.5 38.08 7.42 38.08 7.42 38 7.85 37.96 8.3 37.96 8.75 37.96 9.3 38.02 9.84 38.14 10.36 38.14 10.36 26.28 11.44 26.28 11.44ZM 45.26 13.13C 43.65 13.13 42.24 12.25 41.48 10.96 41.46 10.93 41.44 10.9 41.43 10.87 41.08 10.24 40.88 9.52 40.88 8.75 40.88 7.94 41.1 7.18 41.48 6.53 41.5 6.51 41.51 6.49 41.52 6.48 42.29 5.21 43.68 4.37 45.26 4.37 47.68 4.37 49.64 6.33 49.64 8.75 49.64 9.06 49.61 9.36 49.55 9.65 49.54 9.69 49.53 9.73 49.52 9.77 49.06 11.7 47.32 13.13 45.26 13.13ZM 49.31 14.82C 50.13 14.27 50.83 13.57 51.37 12.74 51.37 12.74 63.39 26.65 63.39 26.65 62.42 26.97 61.55 27.49 60.81 28.16 60.81 28.16 49.31 14.82 49.31 14.82ZM 61.53 64.24C 63.83 64.24 65.7 66.2 65.7 68.62 65.7 68.62 65.7 70.08 65.7 70.08 65.7 70.08 29.2 70.08 29.2 70.08 29.2 70.08 29.2 68.62 29.2 68.62 29.2 66.2 31.07 64.24 33.37 64.24 33.37 64.24 44.34 64.24 44.34 64.24 44.36 64.24 44.37 64.24 44.38 64.24 44.38 64.24 51.3 64.24 51.3 64.24 51.32 64.24 51.33 64.24 51.35 64.24 51.35 64.24 61.53 64.24 61.53 64.24ZM 50.53 61.32C 50.53 61.32 47.07 61.32 47.07 61.32 47.07 61.32 61.41 39.47 61.41 39.47 62.17 40.03 63.04 40.44 63.98 40.67 63.98 40.67 50.53 61.32 50.53 61.32ZM 66.35 37.91C 66.14 37.94 65.92 37.95 65.7 37.95 63.28 37.95 61.32 35.99 61.32 33.57 61.32 31.16 63.28 29.19 65.7 29.19 65.82 29.19 65.95 29.2 66.07 29.21 66.11 29.21 66.16 29.22 66.2 29.22 68.38 29.47 70.08 31.33 70.08 33.57 70.08 35.76 68.47 37.57 66.38 37.9 66.37 37.9 66.36 37.9 66.35 37.91Z" fill="rgb(0,0,0)"/></svg>