<?xml version="1.0" encoding="utf-8"?>
<svg xmlns="http://www.w3.org/2000/svg"
	xmlns:xlink="http://www.w3.org/1999/xlink"
	width="73px" height="74px" viewBox="0 0 73 74">
<path fillRule="evenodd" d="M 72.9 22.45C 72.38 17.26 69.73 12.01 65.45 7.67 60.57 2.72 54.71 0 48.94 0 43.9 0 39.21 2.06 35.37 5.95 31.01 10.38 29.01 15.8 29.59 21.66 29.94 25.08 31.21 28.52 33.25 31.71 33.25 31.71 13.95 51.27 13.95 51.27 13.95 51.27 11.49 48.78 11.49 48.78 10.67 47.95 9.79 47.53 8.85 47.53 8.85 47.53 8.85 47.53 8.85 47.53 7.19 47.53 5.94 48.8 4.61 50.14 4.61 50.14 2.6 52.19 2.6 52.19 1.27 53.53 0.01 54.81 0.01 56.49 0.01 57.44 0.42 58.34 1.23 59.17 1.23 59.17 3.7 61.67 3.7 61.67 3.7 61.67 1.76 63.63 1.76 63.63 0.63 64.78 0.01 66.31 0.01 67.93 0.01 69.55 0.63 71.08 1.77 72.23 2.93 73.41 4.47 74 6 74 7.53 74 9.07 73.41 10.24 72.23 10.24 72.23 41.72 40.31 41.72 40.31 45.46 42.78 49.53 44.11 53.56 44.11 58.6 44.11 63.29 42.05 67.13 38.15 71.5 33.73 73.49 28.3 72.9 22.45ZM 3.3 57.08C 3.07 56.84 2.93 56.62 2.93 56.5 2.93 56.04 3.93 55.02 4.67 54.28 4.67 54.28 6.68 52.24 6.68 52.24 7.4 51.5 8.4 50.49 8.85 50.49 8.97 50.49 9.19 50.63 9.42 50.87 9.42 50.87 11.89 53.37 11.89 53.37 11.89 53.37 5.76 59.58 5.76 59.58 5.76 59.58 3.3 57.08 3.3 57.08ZM 8.18 70.13C 6.98 71.34 5.03 71.35 3.83 70.13 3.25 69.54 2.93 68.76 2.93 67.93 2.93 67.1 3.25 66.31 3.83 65.73 3.83 65.73 34.99 34.13 34.99 34.13 35.63 34.93 36.32 35.7 37.06 36.45 37.79 37.19 38.56 37.89 39.34 38.54 39.34 38.54 8.18 70.13 8.18 70.13ZM 65.06 36.06C 61.78 39.39 57.8 41.15 53.56 41.15 48.57 41.15 43.44 38.74 39.12 34.35 35.31 30.49 32.96 25.87 32.5 21.36 32 16.42 33.71 11.82 37.44 8.05 40.72 4.72 44.7 2.96 48.94 2.96 53.93 2.96 59.06 5.37 63.38 9.76 67.19 13.62 69.54 18.24 70 22.75 70.5 27.68 68.79 32.29 65.06 36.06ZM 59.82 13.37C 56.7 10.21 53.02 8.46 49.47 8.46 46.46 8.46 43.74 9.67 41.39 12.05 38.76 14.72 37.56 17.95 37.9 21.41 38.23 24.63 39.93 27.95 42.68 30.74 45.81 33.9 49.48 35.64 53.03 35.64 56.04 35.64 58.76 34.44 61.11 32.05 63.74 29.39 64.94 26.16 64.6 22.7 64.27 19.47 62.57 16.16 59.82 13.37ZM 59.05 29.96C 57.26 31.77 55.24 32.68 53.03 32.68 50.26 32.68 47.32 31.25 44.75 28.65 42.47 26.33 41.07 23.65 40.81 21.1 40.55 18.56 41.47 16.16 43.45 14.15 45.24 12.34 47.26 11.42 49.47 11.42 52.24 11.42 55.18 12.86 57.75 15.47 60.03 17.77 61.43 20.45 61.69 23 61.95 25.54 61.03 27.95 59.05 29.96Z" fill="rgb(0,0,0)"/></svg>