<?xml version="1.0" encoding="utf-8"?>
<svg xmlns="http://www.w3.org/2000/svg"
	xmlns:xlink="http://www.w3.org/1999/xlink"
	width="27px" height="45px" viewBox="0 0 27 45">
<filter filterUnits="objectBoundingBox" x="0.00" y="0.00" width="100.00" height="100.00" id="filter0">
<feFlood flood-color="rgb(0,0,0)" result="coFloodOut1"/>
<feComposite in="coFloodOut1" in2="SourceAlpha" operator="in" result="coOverlay1"/>
<feBlend in="coOverlay1" in2="SourceGraphic" mode="normal" result="colorOverlay1"/>
</filter>
<path fillRule="evenodd" d="M-0 45C-0 45-0 44-0 44-0 44-0 1-0 1-0 1-0-0-0-0-0-0 2-0 2-0 2-0 26-0 26-0 26-0 27-0 27-0 27-0 27 45 27 45 27 45-0 45-0 45ZM 25 2C 25 2 2 2 2 2 2 2 2 43 2 43 2 43 25 43 25 43 25 43 25 2 25 2ZM 16.2 5.62C 16.2 5.62 10.8 5.62 10.8 5.62 10.8 5.62 10.8 3.75 10.8 3.75 10.8 3.75 16.2 3.75 16.2 3.75 16.2 3.75 16.2 5.62 16.2 5.62ZM 13.82 36.45C 15.34 36.45 16.58 37.73 16.58 39.32 16.58 40.9 15.34 42.19 13.82 42.19 12.3 42.19 11.07 40.9 11.07 39.32 11.07 37.73 12.3 36.45 13.82 36.45ZM 13.82 40.31C 14.35 40.31 14.78 39.86 14.78 39.32 14.78 38.77 14.35 38.32 13.82 38.32 13.3 38.32 12.87 38.77 12.87 39.32 12.87 39.86 13.3 40.31 13.82 40.31Z" fill="rgb(255,255,255)" filter="url(#filter0)"/></svg>