<?xml version="1.0" encoding="utf-8"?>
<svg xmlns="http://www.w3.org/2000/svg"
	xmlns:xlink="http://www.w3.org/1999/xlink"
	width="73px" height="73px" viewBox="0 0 73 73">
<path fillRule="evenodd" d="M 72.49 0.51C 71.99 0 71.23-0.14 70.57 0.14 70.57 0.14 1.05 30.04 1.05 30.04 0.43 30.31 0.02 30.91-0 31.59-0.02 32.26 0.35 32.89 0.96 33.19 0.96 33.19 26.85 46.14 26.85 46.14 26.85 46.14 39.82 72.04 39.82 72.04 40.11 72.63 40.72 73 41.37 73 41.39 73 41.41 73 41.42 73 42.1 72.98 42.7 72.57 42.97 71.95 42.97 71.95 72.86 2.42 72.86 2.42 73.14 1.77 72.99 1.01 72.49 0.51ZM 5.86 31.75C 5.86 31.75 63.63 6.91 63.63 6.91 63.63 6.91 27.81 42.73 27.81 42.73 27.81 42.73 5.86 31.75 5.86 31.75ZM 41.25 67.14C 41.25 67.14 30.27 45.19 30.27 45.19 30.27 45.19 66.09 9.37 66.09 9.37 66.09 9.37 41.25 67.14 41.25 67.14Z" fill="rgb(0,0,0)"/></svg>